<svg xmlns="http://www.w3.org/2000/svg" xmlns:xlink="http://www.w3.org/1999/xlink" width="220" height="220" viewBox="0 0 220 220">
  <defs>
    <clipPath id="clip-path">
      <rect id="Rectangle_3357" data-name="Rectangle 3357" width="220" height="220" transform="translate(660 339)" fill="#fff" stroke="#707070" stroke-width="1"/>
    </clipPath>
  </defs>
  <g id="Mask_Group_871" data-name="Mask Group 871" transform="translate(-660 -339)" clip-path="url(#clip-path)">
    <g id="shopping-cart" transform="translate(660 339)">
      <path id="Path_4839" data-name="Path 4839" d="M176.2,38.623H146.632a6.437,6.437,0,0,1-6.437-6.437V21.222a21.223,21.223,0,0,1,42.445,0V32.186A6.437,6.437,0,0,1,176.2,38.623ZM153.07,30.04h16.7V21.222a8.348,8.348,0,0,0-16.7,0V30.04Z" fill="#282830"/>
      <path id="Path_4840" data-name="Path 4840" d="M195.451,104.366H128.938a6.44,6.44,0,0,1-6.437-6.437V72.18c0-.052.009-.1.009-.155s0-.107,0-.159l2.146-39.718a6.437,6.437,0,0,1,6.429-6.124h60.668a6.435,6.435,0,0,1,6.429,6.094l3.708,65.466c0,4.288-2.972,6.781-6.437,6.781Z" fill="#df183b"/>
      <path id="Path_4841" data-name="Path 4841" d="M195.451,104.366h-58.9V26.025h55.205a6.435,6.435,0,0,1,6.429,6.094l3.708,65.466C201.889,101.874,198.917,104.366,195.451,104.366Z" fill="#f01c41"/>
      <path id="Path_4842" data-name="Path 4842" d="M136.545,50.723V97.929a6.437,6.437,0,0,1-6.437,6.437h-66.7a6.439,6.439,0,0,1-6.373-7.342l3.016-47.206a6.438,6.438,0,0,1,6.373-5.532h63.681A6.437,6.437,0,0,1,136.545,50.723Z" fill="#ffb648"/>
      <circle id="Ellipse_90" data-name="Ellipse 90" cx="19.311" cy="19.311" r="19.311" transform="translate(150.627 181.377)" fill="#282830"/>
      <circle id="Ellipse_91" data-name="Ellipse 91" cx="19.311" cy="19.311" r="19.311" transform="translate(82.071 181.377)" fill="#323241"/>
      <path id="Path_4843" data-name="Path 4843" d="M174.723,93.316a6.434,6.434,0,0,1-6.429,6.759H104.8a6.434,6.434,0,0,1-6.429-6.759l1.287-25.749a6.439,6.439,0,0,1,6.429-6.115h60.922a6.438,6.438,0,0,1,6.429,6.115Z" fill="#1fb967"/>
      <path id="Path_4844" data-name="Path 4844" d="M174.723,93.316a6.434,6.434,0,0,1-6.429,6.759H136.547V61.451h30.461a6.438,6.438,0,0,1,6.429,6.115Z" fill="#25c36f"/>
      <path id="Path_4845" data-name="Path 4845" d="M209.708,95.26l-11.244,38.9a27.884,27.884,0,0,1-27.216,21.466H77.183c-3.146-12.814-11.926-43.271-18.3-68.428H203.477a6.44,6.44,0,0,1,6.231,8.06Z" fill="#eceef4"/>
      <path id="Path_4846" data-name="Path 4846" d="M209.708,95.26l-11.244,38.9a27.884,27.884,0,0,1-27.216,21.466h-34.7V87.2h66.93a6.44,6.44,0,0,1,6.231,8.06Z" fill="#bfc3cb"/>
      <circle id="Ellipse_92" data-name="Ellipse 92" cx="6.445" cy="6.445" r="6.445" transform="translate(94.937 194.243)" fill="#f0f7ff"/>
      <circle id="Ellipse_93" data-name="Ellipse 93" cx="6.445" cy="6.445" r="6.445" transform="translate(163.493 194.243)" fill="#dfe7f4"/>
      <path id="Path_4847" data-name="Path 4847" d="M192.75,174.939a6.442,6.442,0,0,1-6.441,6.437H94.067A24.823,24.823,0,0,1,69.824,162.2c-2.217-7.8-1.392-4.89-26.288-104.375A6.389,6.389,0,0,0,37.34,53H16.521a6.437,6.437,0,0,1,0-12.873H37.34A19.248,19.248,0,0,1,56.014,54.652S59.1,66.821,63.177,82.908c6.372,25.158,15.151,59.907,18.3,72.72.378,1.53.675,2.754.877,3.605A12,12,0,0,0,94.067,168.5h92.241a6.443,6.443,0,0,1,6.441,6.437Z" fill="#323241"/>
      <path id="Path_4848" data-name="Path 4848" d="M192.75,174.939a6.442,6.442,0,0,1-6.441,6.437H136.546V168.5h49.762a6.443,6.443,0,0,1,6.441,6.437Z" fill="#282830"/>
    </g>
  </g>
</svg>
